<?xml version="1.0" encoding="iso-8859-1"?>
<!-- Uploaded to: SVG Repo, www.svgrepo.com, Generator: SVG Repo Mixer Tools -->
<svg version="1.1" id="Capa_1" xmlns="http://www.w3.org/2000/svg" xmlns:xlink="http://www.w3.org/1999/xlink" 
	 viewBox="0 0 340.69 340.69" xml:space="preserve">
<g>
	<polygon style="fill:#FFFFFF;" points="257.25,186.061 257.25,184.061 211.187,184.061 211.187,189.572 221.187,189.572 
		221.187,186.061 	"/>
	<path style="fill:#FFFFFF;" d="M76.78,232.292h69.384v-10H66.78v92.337c0,5.758,4.424,10.497,10.051,11.009
		c-0.03-0.332-0.051-0.668-0.051-1.009V232.292z"/>
	<path style="fill:#FFA5A5;" d="M76.78,324.63c0,0.341,0.021,0.676,0.051,1.009l0,0c0.333,0.03,0.669,0.051,1.01,0.051h57.263
		c6.099,0,11.061-4.961,11.061-11.06v-82.337H76.78V324.63z"/>
	<polygon style="fill:#FFFFFF;" points="129.504,114.358 129.504,104.358 83.441,104.358 83.441,207.292 93.441,207.292 
		93.441,114.358 	"/>
	<path style="fill:#FFFFFF;" d="M120.324,27.019c-0.973-5.875-2.897-11.4-5.396-11.971c-4.118,2.024-14.457,15.307-23.01,29.533
		v44.777h10V52.581C108.136,42.239,115.295,32.401,120.324,27.019z"/>
	<path style="fill:#FFFFFF;" d="M204.526,214.572h69.384v-10h-79.384V314.63c0,5.758,4.424,10.497,10.051,11.009
		c-0.03-0.332-0.051-0.668-0.051-1.009V214.572z"/>
	<path style="fill:#FFA5A5;" d="M204.526,324.63c0,0.341,0.021,0.676,0.051,1.009l0,0c0.333,0.03,0.668,0.051,1.009,0.051h57.264
		c6.099,0,11.06-4.961,11.06-11.06V214.572h-69.384V324.63z"/>
	<g>
		<polygon style="fill:none;" points="221.187,186.061 257.25,186.061 257.25,184.061 211.187,184.061 211.187,189.572 
			221.187,189.572 		"/>
		<path style="fill:none;" d="M194.526,314.63c0,5.758,4.424,10.497,10.051,11.009c0.333,0.03,0.668,0.051,1.009,0.051h57.264
			c6.099,0,11.06-4.961,11.06-11.06V214.572v-10h-79.384V314.63z"/>
		<rect x="221.187" y="186.061" style="fill:#FFA5A5;" width="36.062" height="3.512"/>
		<path style="fill:#D15252;" d="M281.41,189.572h-9.16v-13.012c0-4.142-3.358-7.5-7.5-7.5h-61.062c-4.143,0-7.5,3.358-7.5,7.5
			v13.012h-9.161c-4.142,0-7.5,3.358-7.5,7.5V314.63c0,14.37,11.691,26.06,26.061,26.06h57.264c14.369,0,26.06-11.69,26.06-26.06
			V197.072C288.91,192.93,285.552,189.572,281.41,189.572z M211.187,184.061h46.062v2v3.512h-36.062h-10V184.061z M273.91,214.572
			V314.63c0,6.099-4.961,11.06-11.06,11.06h-57.264c-0.341,0-0.676-0.021-1.009-0.051c-5.627-0.512-10.051-5.251-10.051-11.009
			V204.572h79.384V214.572z"/>
	</g>
	<path style="fill:#FFE09C;" d="M101.919,52.581v36.777h19.108V34.897c-0.008-2.401-0.254-5.177-0.702-7.879c0,0,0,0,0,0
		C115.295,32.401,108.136,42.239,101.919,52.581z"/>
	<path style="fill:none;" d="M121.026,89.358V34.897c-0.008-2.401-0.254-5.177-0.702-7.879c-0.973-5.874-2.897-11.4-5.396-11.97
		c-4.118,2.024-14.457,15.307-23.01,29.533v44.777h10H121.026z"/>
	<rect x="93.441" y="114.358" style="fill:#FFA5A5;" width="36.062" height="92.934"/>
	<polygon style="fill:none;" points="129.504,207.292 129.504,114.358 129.504,104.358 83.441,104.358 83.441,207.292 
		93.441,207.292 	"/>
	<path style="fill:none;" d="M121.026,89.358V34.897c-0.008-2.401-0.254-5.177-0.702-7.879c-0.973-5.874-2.897-11.4-5.396-11.97
		c-4.118,2.024-14.457,15.307-23.01,29.533v44.777h10H121.026z"/>
	<path style="fill:#D15252;" d="M153.664,207.292h-9.16V96.858c0-4.142-3.358-7.5-7.5-7.5h-0.978V34.897
		c0-0.318-0.022-7.882-1.987-15.558C129.732,2.513,119.951,0,114.503,0c-6.851,0-14.232,6.165-24.684,20.615
		c-6.467,8.941-11.648,17.736-11.866,18.106c-0.677,1.152-1.033,2.463-1.033,3.799v46.837h-0.977c-4.143,0-7.5,3.358-7.5,7.5
		v110.434H59.28c-4.142,0-7.5,3.358-7.5,7.5v99.837c0,14.37,11.69,26.06,26.061,26.06h57.263c14.37,0,26.061-11.69,26.061-26.06
		v-99.837C161.164,210.65,157.806,207.292,153.664,207.292z M91.919,44.581c8.553-14.226,18.892-27.509,23.01-29.533
		c2.499,0.57,4.423,6.096,5.396,11.97c0.448,2.702,0.694,5.478,0.702,7.879v54.461h-19.108h-10V44.581z M83.441,104.358h46.062v10
		v92.934H93.441h-10V104.358z M66.78,314.63v-92.337h79.384v10v82.337c0,6.099-4.962,11.06-11.061,11.06H77.84
		c-0.341,0-0.677-0.021-1.01-0.051C71.204,325.126,66.78,320.388,66.78,314.63z"/>
</g>
</svg>